<?xml version="1.0" standalone="no"?>
<!DOCTYPE svg PUBLIC "-//W3C//DTD SVG 20010904//EN"
 "http://www.w3.org/TR/2001/REC-SVG-20010904/DTD/svg10.dtd">
<svg version="1.0" xmlns="http://www.w3.org/2000/svg"
 width="400.000000pt" height="400.000000pt" viewBox="0 0 400.000000 400.000000"
 preserveAspectRatio="xMidYMid meet">
<metadata>
Created by potrace 1.16, written by Peter Selinger 2001-2019
</metadata>
<g transform="translate(0.000000,400.000000) scale(0.100000,-0.100000)"
fill="#000000" stroke="none">
<path d="M1907 3100 c-64 -19 -68 -44 -41 -226 8 -58 14 -108 11 -110 -5 -5
-42 123 -57 199 l-11 57 -31 -21 c-63 -45 -138 -179 -138 -246 0 -15 -8 -35
-17 -45 -10 -12 -18 -42 -21 -78 l-4 -60 55 0 c36 0 59 -5 67 -15 11 -13 56
-15 295 -15 242 0 284 2 289 15 4 11 21 15 61 15 l55 0 0 59 c0 37 -5 65 -14
73 -7 8 -16 34 -20 58 -10 69 -50 145 -107 205 -29 30 -55 55 -58 55 -4 0 -12
-30 -19 -67 -12 -72 -65 -242 -57 -183 27 184 35 276 27 295 -6 12 -27 26 -50
33 -45 14 -173 15 -215 2z"/>
<path d="M1655 2473 c6 -52 27 -110 54 -153 5 -8 26 -43 46 -77 34 -59 35 -64
21 -90 -24 -48 -47 -60 -251 -137 -271 -102 -262 -91 -302 -364 l-17 -121 47
-69 c80 -117 219 -237 352 -304 82 -42 205 -76 315 -88 114 -13 120 -11 120
46 0 30 2 32 50 38 28 4 58 10 67 13 14 5 15 0 11 -40 -5 -39 -3 -47 11 -47
34 0 165 42 222 70 l59 30 0 190 0 190 -115 0 -115 0 0 30 0 30 88 2 c48 1 68
3 45 5 l-43 4 0 209 0 209 78 -28 77 -29 3 -185 c2 -175 4 -185 22 -190 19 -5
20 -14 20 -202 l0 -196 31 18 c52 29 173 153 221 225 l44 67 -23 157 c-25 166
-41 216 -80 241 -13 9 -108 48 -211 87 -227 88 -227 88 -250 133 l-19 36 33
56 c18 31 42 72 55 91 25 40 49 120 49 168 0 27 -4 32 -24 32 -31 0 -42 -15
-50 -72 -4 -26 -15 -57 -25 -70 -9 -13 -30 -50 -47 -82 -16 -33 -49 -82 -74
-109 -51 -55 -95 -70 -175 -60 -43 5 -57 12 -96 53 -25 26 -63 80 -83 121 -20
40 -41 76 -47 79 -5 4 -15 35 -23 71 -12 62 -14 64 -46 67 l-32 3 7 -58z m371
-391 c64 3 87 9 113 27 18 13 33 22 34 20 1 -2 12 -18 25 -36 12 -18 22 -36
22 -42 0 -13 -74 -47 -133 -62 -64 -16 -165 -6 -219 22 -70 35 -70 36 -42 79
l26 39 46 -26 c42 -22 56 -24 128 -21z m-316 -247 l0 -215 188 2 187 3 3 47
c2 36 -3 56 -22 87 -36 56 -34 102 6 157 17 24 36 44 41 44 5 0 8 -28 5 -64
-4 -71 0 -76 68 -76 27 0 32 4 38 31 3 17 6 44 6 60 0 44 24 35 49 -19 20 -42
21 -54 12 -88 -6 -22 -24 -53 -40 -68 -24 -23 -30 -39 -36 -90 -11 -112 -16
-135 -29 -130 -6 2 -33 -2 -59 -10 -52 -15 -63 -9 -53 30 l6 24 -285 0 -285 0
0 30 c0 30 1 30 58 31 53 2 54 2 17 8 l-40 6 -3 177 -2 176 77 30 c43 17 81
31 86 31 4 1 7 -96 7 -214z m-45 -315 c99 -11 187 -20 196 -20 22 0 34 -47 17
-67 -10 -13 -13 -13 -25 3 -10 14 -55 24 -210 46 -108 15 -199 31 -202 34 -6
6 19 24 34 24 6 0 91 -9 190 -20z m389 -14 c-8 -34 6 -38 72 -21 132 34 150 9
123 -170 -14 -89 -27 -109 -85 -129 -86 -29 -291 -11 -316 28 -13 19 -9 100 7
153 12 39 21 52 40 57 13 3 39 21 57 40 30 31 82 65 101 66 4 0 5 -11 1 -24z"/>
</g>
</svg>
