<?xml version="1.0" standalone="no"?>
<svg xmlns="http://www.w3.org/2000/svg" viewBox="0 0 114 64" width="114" height="64"><g fill="#9791e2" color="#9791e2" transform="translate(39.045 0) scale(0.6481482) "><svg width="54.0" height="54.0" x="0.0" y="0.0" viewBox="0 0 54 54"><path fill="currentColor" fill-rule="evenodd" d="M.855 53.98c-.7.18-1.224-.903-.525-1.264 5.77-2.166 8.392-4.333 9.966-6.679-6.119-4.513-6.818-9.75-1.924-15.888 4.72 2.89 6.294 9.028 3.671 13.902 2.973-3.973 5.07-8.305 7.343-12.638-6.294-5.054-6.993-11.555-2.098-19.316 4.545 3.972 5.245 10.11 2.448 18.775 2.271-4.152 4.545-8.125 8.217-11.554C23.757 10.832 25.155 4.334 32.148 0c1.922 6.138.7 12.457-3.67 18.956 1.747-1.625 7.167-5.235 9.09-5.957 3.845-6.5 9.264-8.305 16.432-5.416-1.922 7.22-9.964 10.47-16.083 6.68-5.769 2.528-9.44 5.957-12.412 9.748 5.07-3.79 11.013-4.874 18.008-3.068-3.847 7.763-10.141 9.026-18.533 3.792-2.973 3.971-5.07 8.665-7.518 13.178 3.847-5.237 9.267-7.041 16.085-5.777-3.497 6.499-8.917 8.484-16.085 5.777C13.792 44.232 9.595 50.37.855 53.98"></path></svg></g><line x1="40.09400000000001" y1="41" x2="72.994" y2="41" stroke="#1e197c" stroke-linecap="round"></line><path fill="#1e197c" fill-rule="nonzero" d="M2.16 16.27L2.16 3.31Q2.16 2.09 1.82 1.50Q1.49 0.91 0.48 0.91L0.48 0.91L0 0.91L0 0.43L6.24 0.43Q8.86 0.43 10.79 1.30Q12.72 2.16 12.72 4.63L12.72 4.63Q12.72 5.76 11.95 6.67Q11.18 7.58 9.60 8.11L9.60 8.11Q11.81 8.47 12.68 9.42Q13.56 10.37 13.56 11.95L13.56 11.95Q13.56 14.38 11.65 15.32Q9.74 16.27 6.96 16.27L6.96 16.27L2.16 16.27ZM4.32 7.75L6.60 7.75Q7.58 7.75 8.46 7.38Q9.34 7.01 9.89 6.28Q10.44 5.54 10.44 4.51L10.44 4.51Q10.44 3.43 9.79 2.70Q9.14 1.97 8.15 1.62Q7.15 1.27 6.12 1.27L6.12 1.27Q5.28 1.27 4.32 1.51L4.32 1.51L4.32 7.75ZM6.60 15.43Q8.78 15.43 9.97 14.57Q11.16 13.70 11.16 12.07L11.16 12.07Q11.16 10.44 10.00 9.58Q8.83 8.71 6.60 8.71L6.60 8.71L4.32 8.71L4.32 15.10Q5.47 15.43 6.60 15.43L6.60 15.43ZM18.96 16.51Q18.19 16.51 17.40 16.19Q16.61 15.86 16.04 15.12Q15.48 14.38 15.48 13.15L15.48 13.15Q15.48 11.33 17.17 10.56Q18.86 9.79 21.60 9.79L21.60 9.79L22.32 9.79Q22.32 7.44 21.67 6.58Q21.02 5.71 19.80 5.71L19.80 5.71Q18.72 5.71 18.07 6.17Q17.42 6.62 17.16 7.75L17.16 7.75L16.08 7.75Q16.08 6.94 16.18 6.47Q16.27 6.00 16.68 5.59L16.68 5.59Q17.11 5.16 18.11 4.96Q19.10 4.75 20.28 4.75L20.28 4.75Q22.22 4.75 23.35 5.80Q24.48 6.84 24.48 9.79L24.48 9.79L24.48 16.27L23.28 16.27L22.44 15.19L22.32 15.19Q21.89 15.74 21.05 16.13Q20.21 16.51 18.96 16.51L18.96 16.51ZM20.04 15.43Q20.83 15.43 21.36 15.05Q21.89 14.66 22.32 13.99L22.32 13.99L22.32 10.75L21.60 10.75Q19.82 10.75 18.79 11.41Q17.76 12.07 17.76 13.15L17.76 13.15Q17.76 14.26 18.42 14.84Q19.08 15.43 20.04 15.43L20.04 15.43ZM28.01 16.27L28.01 7.87Q28.01 6.65 27.67 6.06Q27.34 5.47 26.33 5.47L26.33 5.47L26.09 5.47L26.09 4.99L28.01 4.99Q28.92 4.99 29.39 5.24Q29.86 5.50 30.05 6.07L30.05 6.07L30.17 6.07Q30.60 5.52 31.33 5.14Q32.06 4.75 33.05 4.75L33.05 4.75Q34.01 4.75 34.49 5.11L34.49 5.11Q34.90 5.42 35.33 6.19L35.33 6.19L34.37 6.91Q34.10 6.55 33.60 6.37Q33.10 6.19 32.45 6.19L32.45 6.19Q31.73 6.19 31.13 6.52Q30.53 6.84 30.17 7.39L30.17 7.39L30.17 16.27L28.01 16.27ZM40.68 16.51Q39.34 16.51 38.57 15.74Q37.80 14.98 37.80 13.39L37.80 13.39L37.80 5.95L36.12 5.95L36.12 4.99L37.80 4.99L37.80 2.83L39 1.39L39.96 1.39L39.96 4.99L42.84 4.99L42.84 5.95L39.96 5.95L39.96 13.39Q39.96 15.55 41.64 15.55L41.64 15.55Q42.22 15.55 42.61 15.43Q43.01 15.31 43.44 15.07L43.44 15.07L43.68 15.55Q43.13 15.96 42.46 16.24Q41.78 16.51 40.68 16.51L40.68 16.51ZM49.85 16.51Q48.22 16.51 47.09 15.73Q45.96 14.95 45.38 13.62Q44.81 12.29 44.81 10.63L44.81 10.63Q44.81 9.00 45.38 7.66Q45.96 6.31 47.05 5.53Q48.14 4.75 49.61 4.75L49.61 4.75Q52.03 4.75 53.22 6.11Q54.41 7.46 54.41 10.03L54.41 10.03L54.36 10.99L47.09 10.99Q47.09 13.01 47.95 14.28Q48.82 15.55 50.33 15.55L50.33 15.55Q51.46 15.55 52.24 15.07Q53.02 14.59 53.69 13.63L53.69 13.63L54.17 13.99Q53.38 15.31 52.32 15.91Q51.26 16.51 49.85 16.51L49.85 16.51ZM47.09 10.03L52.13 10.03Q52.13 7.92 51.50 6.82Q50.88 5.71 49.61 5.71L49.61 5.71Q48.89 5.71 48.31 6.28Q47.74 6.84 47.41 7.82Q47.09 8.81 47.09 10.03L47.09 10.03ZM57.36 16.27L57.36 7.87Q57.36 6.65 57.02 6.06Q56.69 5.47 55.68 5.47L55.68 5.47L55.44 5.47L55.44 4.99L57.36 4.99Q58.27 4.99 58.74 5.24Q59.21 5.50 59.40 6.07L59.40 6.07L59.52 6.07Q59.95 5.52 60.68 5.14Q61.42 4.75 62.40 4.75L62.40 4.75Q63.36 4.75 63.84 5.11L63.84 5.11Q64.25 5.42 64.68 6.19L64.68 6.19L63.72 6.91Q63.46 6.55 62.95 6.37Q62.45 6.19 61.80 6.19L61.80 6.19Q61.08 6.19 60.48 6.52Q59.88 6.84 59.52 7.39L59.52 7.39L59.52 16.27L57.36 16.27ZM71.74 16.68Q70.42 16.68 69.14 16.32Q67.87 15.96 67.07 15.29Q66.26 14.62 66.26 13.75L66.26 13.75L66.26 11.18L66.70 11.18Q67.10 13.58 68.28 14.65Q69.46 15.72 71.52 15.72L71.52 15.72Q72.82 15.72 73.74 15.07Q74.66 14.42 74.66 13.27L74.66 13.27Q74.66 12.26 74.04 11.52Q73.42 10.78 72.02 9.96L72.02 9.96L69.07 8.21Q67.54 7.30 66.90 6.36Q66.26 5.42 66.26 4.08L66.26 4.08Q66.26 2.23 67.55 1.12Q68.83 0 70.92 0L70.92 0Q72.14 0 73.34 0.35Q74.54 0.70 75.32 1.36Q76.10 2.02 76.10 2.88L76.10 2.88L76.10 5.45L75.67 5.45Q75.26 3.05 74.12 2.00Q72.98 0.96 70.92 0.96L70.92 0.96Q69.82 0.96 68.98 1.63Q68.14 2.30 68.14 3.38L68.14 3.38Q68.14 4.37 68.75 5.02Q69.36 5.66 70.80 6.53L70.80 6.53L73.75 8.28Q75.38 9.26 76.06 10.10Q76.73 10.94 76.73 12.24L76.73 12.24Q76.73 14.26 75.38 15.47Q74.04 16.68 71.74 16.68L71.74 16.68ZM83.88 16.51Q82.25 16.51 81.12 15.73Q79.99 14.95 79.42 13.62Q78.84 12.29 78.84 10.63L78.84 10.63Q78.84 9.00 79.42 7.66Q79.99 6.31 81.08 5.53Q82.18 4.75 83.64 4.75L83.64 4.75Q86.06 4.75 87.25 6.11Q88.44 7.46 88.44 10.03L88.44 10.03L88.39 10.99L81.12 10.99Q81.12 13.01 81.98 14.28Q82.85 15.55 84.36 15.55L84.36 15.55Q85.49 15.55 86.27 15.07Q87.05 14.59 87.72 13.63L87.72 13.63L88.20 13.99Q87.41 15.31 86.35 15.91Q85.30 16.51 83.88 16.51L83.88 16.51ZM81.12 10.03L86.16 10.03Q86.16 7.92 85.54 6.82Q84.91 5.71 83.64 5.71L83.64 5.71Q82.92 5.71 82.34 6.28Q81.77 6.84 81.44 7.82Q81.12 8.81 81.12 10.03L81.12 10.03ZM91.39 16.27L91.39 7.87Q91.39 6.65 91.06 6.06Q90.72 5.47 89.71 5.47L89.71 5.47L89.47 5.47L89.47 4.99L91.39 4.99Q92.30 4.99 92.77 5.24Q93.24 5.50 93.43 6.07L93.43 6.07L93.55 6.07Q93.98 5.52 94.72 5.14Q95.45 4.75 96.43 4.75L96.43 4.75Q97.39 4.75 97.87 5.11L97.87 5.11Q98.28 5.42 98.71 6.19L98.71 6.19L97.75 6.91Q97.49 6.55 96.98 6.37Q96.48 6.19 95.83 6.19L95.83 6.19Q95.11 6.19 94.51 6.52Q93.91 6.84 93.55 7.39L93.55 7.39L93.55 16.27L91.39 16.27ZM105.77 16.51L100.20 3.24Q99.60 1.85 99.07 1.33Q98.54 0.82 97.56 0.72L97.56 0.72L97.56 0.24Q97.68 0.24 97.91 0.22Q98.14 0.19 98.38 0.19L98.38 0.19Q99.58 0.19 100.68 0.80Q101.78 1.42 102.55 3.24L102.55 3.24L106.66 12.91L108.07 9.62Q109.08 7.30 111.94 0.43L111.94 0.43L113.09 0.43L106.20 16.51L105.77 16.51Z" transform="translate(0, 47)"></path></svg>